<?xml version="1.0" encoding="UTF-8" standalone="no"?>
<!DOCTYPE svg PUBLIC "-//W3C//DTD SVG 1.1//EN" "http://www.w3.org/Graphics/SVG/1.1/DTD/svg11.dtd">
<svg width="100%" height="100%" viewBox="0 0 1740 349" version="1.1" xmlns="http://www.w3.org/2000/svg" xmlns:xlink="http://www.w3.org/1999/xlink" xml:space="preserve" xmlns:serif="http://www.serif.com/" style="fill-rule:evenodd;clip-rule:evenodd;stroke-linecap:round;stroke-linejoin:round;stroke-miterlimit:1.5;">
    <g transform="matrix(1,0,0,1,-228.279,-689.676)">
        <g id="Layer1">
            <path d="M592.426,732.866C592.426,732.866 545.864,631.369 483.262,741.376C482.514,825.251 481.766,909.129 481.955,993.007C481.971,1000.04 486.885,1006.24 490.287,1012.4C496.239,1023.17 506.744,1032.83 519.538,1033.81L688.912,1032.16C688.912,1032.16 766.385,987.53 689.763,947.402C686.197,947.225 682.625,947.047 679.085,946.591C670.891,945.534 662.698,944.405 654.58,942.865C639.025,939.916 617.584,934.058 609.259,918.936C589.66,883.334 593.523,835.732 592.909,798.029C592.555,776.31 592.491,754.587 592.426,732.866Z" style="fill:rgb(0,206,39);stroke:rgb(0,206,39);stroke-width:1px;"/>
            <path d="M336.158,841.969C336.158,841.969 286.02,743.501 229.57,845.13L228.279,989.266C228.279,989.266 280.183,1092.4 337.834,988.373C337.834,988.373 338.959,935.789 338.938,935.666L353.199,935.865L336.158,841.969Z" style="fill:rgb(0,206,39);"/>
            <path d="M784.994,697.819C783.247,697.592 781.456,697.359 779.713,697.617C775.443,698.249 771.158,699.048 767.083,700.47C757.428,703.839 749.48,713.102 744.904,721.824C742.517,726.375 739.161,730.951 739.06,736.089C737.379,821.534 738.964,907.014 739.58,992.474C739.697,1008.65 752.111,1029.8 769.309,1032.38C773.414,1032.99 970.563,1046.13 956.896,1016.64C953.818,1010 963.19,995.652 963.337,983.256C963.501,969.426 954.398,957.578 949.17,952.376C945.844,949.067 943.225,943.844 938.594,943.089C915.062,939.248 890.273,944.932 867.181,938.994C859.767,937.088 857.147,927.383 852.859,921.042C850.464,917.5 849.261,905.059 849.93,898.327C850.105,896.563 846.313,896.998 846.32,895.226C846.412,871.859 838.497,847.723 844.531,825.149C848.263,811.187 861.889,801.432 873.639,793.02" style="fill:rgb(0,206,39);"/>
            <path d="M873.639,793.02C892.867,793.339 912.316,793.662 931.273,790.431C935.774,789.664 938.353,784.643 941.606,781.438C957.766,765.518 971.877,741.237 959.13,719.148C955.379,712.648 950.166,707.183 944.313,702.543C940.553,699.563 937.195,694.964 932.428,694.425C906.346,691.471 879.959,692.341 853.709,692.284C836.535,692.247 819.348,692.896 802.218,694.142C797.102,694.514 792.058,695.732 787.121,697.125C785.135,697.685 782.393,699.522 784.334,701.981" style="fill:rgb(0,206,39);"/>
            <path d="M352.951,938.579L355.272,991.864C355.272,991.864 408.912,1092.01 462.668,996.852L464.044,857.511L354.316,863.215L340.093,863.366L340.395,863.376L340.093,863.366" style="fill:rgb(0,206,39);"/>
            <g transform="matrix(1,0,0,1,-11.6943,-1.77901)">
                <path d="M271.079,698.799C271.079,698.799 207.327,731.514 262.882,784.033" style="fill:rgb(0,206,39);"/>
            </g>
            <path d="M422.28,699.702C422.792,699.524 254.539,697.41 254.539,697.41C254.539,697.41 421.768,699.881 422.28,699.702Z" style="fill:rgb(0,206,39);"/>
            <path d="M464.181,749.05C464.078,752.376 422.28,699.702 422.28,699.702C422.28,699.702 465.583,703.485 464.181,749.05Z" style="fill:rgb(0,206,39);"/>
            <path d="M464.317,867.123C464.317,867.123 463.22,741.928 464.744,745.556C466.268,749.183 425.777,698.021 425.777,698.021L258.607,696.153L249.941,779.473C249.941,779.473 240.09,783.127 304.748,787.357C304.748,787.357 356.757,804.076 351.36,863.688" style="fill:rgb(0,206,39);"/>
            <path d="M885.314,808.249C885.314,808.249 869.484,807.743 859.464,835.102L860.488,900.678C860.488,900.678 875.502,923.16 883.668,922.997L939.902,924.189C939.902,924.189 960.473,916.675 963.833,901.129L965.98,831.295C965.98,831.295 955.839,808.692 942.463,807.959C929.086,807.225 885.314,808.249 885.314,808.249Z" style="fill:rgb(0,206,39);stroke:rgb(0,206,39);stroke-width:1px;"/>
            <path d="M1090.93,833.867C1090.93,833.867 1040.55,757.955 986.55,835.7L984.37,989.874C984.37,989.874 1041.07,1088.09 1092.86,987.594L1090.93,833.867Z" style="fill:rgb(0,206,39);stroke:rgb(0,206,39);stroke-width:1px;"/>
            <path d="M1012.25,698.38C1012.25,698.38 944.845,737.334 1014.95,783.527C1014.95,783.527 1067.77,784.418 1073.43,791.958C1073.43,791.958 1100.92,806.556 1107.4,834.83L1109.3,988.178C1109.3,988.178 1150.68,1084.61 1216.26,995.822L1217.94,903.794C1217.94,903.794 1206.61,870.593 1170.26,866.146C1170.26,866.146 1211.05,851.393 1214.82,832.123L1216.32,756.397C1216.32,756.397 1213.5,717.248 1160.52,698.809L1012.25,698.38Z" style="fill:rgb(0,206,39);"/>
            <path d="M1236.88,734.905C1230.51,761.031 1234.74,893.782 1234.74,893.782C1234.74,893.782 1285.21,978.677 1340.63,892.523C1340.63,892.523 1344.77,884.411 1343.46,809.889L1357.27,809.541C1357.27,809.541 1355.89,892.337 1359.71,890.201C1359.71,890.201 1408.47,981.669 1463.85,891.667L1463.28,734.498C1463.28,734.498 1458.21,706.01 1420.92,698.661L1277.99,698.095C1277.99,698.095 1243.25,708.779 1236.88,734.905Z" style="fill:rgb(0,206,39);stroke:rgb(0,206,39);stroke-width:1px;"/>
            <path d="M1350.16,909.963C1350.16,909.963 1330.39,947.948 1262.9,948.588C1262.9,948.588 1196.36,988.094 1263,1029.77L1433.39,1031.41C1433.39,1031.41 1502.57,998.518 1437.47,947.443C1437.47,947.443 1358.16,935.795 1351.86,909.728L1350.16,909.963Z" style="fill:rgb(0,206,39);"/>
            <path d="M1590.68,733.601C1590.68,733.601 1542.76,644.237 1481.87,739.013L1482,988.938C1482,988.938 1487.22,1030.94 1524.1,1032.5L1686.43,1032.25C1686.43,1032.25 1756.78,994.619 1690.14,946.825C1690.14,946.825 1640.87,944.867 1638.08,940.752C1638.08,940.752 1613.94,937.408 1596.75,897.378L1590.68,733.601Z" style="fill:rgb(0,206,39);stroke:rgb(0,206,39);stroke-width:1px;"/>
            <path d="M1596.75,897.378C1596.75,897.378 1592.29,731.73 1590.68,733.601" style="fill:rgb(0,206,39);stroke:rgb(0,206,39);stroke-width:1px;"/>
            <path d="M1734.44,744.192C1732.6,777.8 1736.13,984.467 1736.13,984.467C1736.13,984.467 1737.37,1019.99 1782.38,1034.22L1928.36,1033.19C1928.36,1033.19 2008.65,993.871 1934.38,941.528C1934.38,941.528 1878.31,944.94 1878.49,936.605C1878.49,936.605 1858.12,935.599 1843.24,894.561C1843.24,894.561 1843.75,827.332 1843.62,829.191C1843.5,831.051 1854.01,800.033 1875.38,792.337C1875.38,792.337 1887.52,786.726 1932.44,788.126C1932.44,788.126 2009.55,747.433 1934.83,695.931L1782.57,696.777C1782.57,696.777 1736.28,710.584 1734.44,744.192Z" style="fill:rgb(0,206,39);"/>
            <path d="M1858.7,829.032C1855.96,841.293 1859.03,896.326 1859.03,896.326C1859.03,896.326 1868.44,923.357 1885.73,924.49C1885.73,924.49 1939.37,925.13 1939.83,924.834C1940.29,924.537 1959.28,917.744 1964.99,902.32L1964.6,828.221C1964.6,828.221 1958.62,808.554 1937.15,805.56L1886.64,804.123C1886.64,804.123 1861.44,816.771 1858.7,829.032Z" style="fill:rgb(0,206,39);"/>
            <path d="M951.222,977.29C954.527,976.087 955.394,983.665 955.394,987.009C955.394,994.955 953.774,1015.44 947.566,1015.44" style="fill:none;stroke:rgb(0,206,39);stroke-width:18px;"/>
        </g>
    </g>
</svg>
