<svg id="visual" viewBox="0 0 1400 500" width="1400" height="500" xmlns="http://www.w3.org/2000/svg" xmlns:xlink="http://www.w3.org/1999/xlink" version="1.1"><path d="M0 203L33.3 201.2C66.7 199.3 133.3 195.7 200 182.3C266.7 169 333.3 146 400 136.3C466.7 126.7 533.3 130.3 600 143C666.7 155.7 733.3 177.3 800 176.2C866.7 175 933.3 151 1000 150.3C1066.7 149.7 1133.3 172.3 1200 181.7C1266.7 191 1333.3 187 1366.7 185L1400 183L1400 0L1366.7 0C1333.3 0 1266.7 0 1200 0C1133.3 0 1066.7 0 1000 0C933.3 0 866.7 0 800 0C733.3 0 666.7 0 600 0C533.3 0 466.7 0 400 0C333.3 0 266.7 0 200 0C133.3 0 66.7 0 33.3 0L0 0Z" fill="#249fc7"></path><path d="M0 122L33.3 119C66.7 116 133.3 110 200 115C266.7 120 333.3 136 400 136.3C466.7 136.7 533.3 121.3 600 113.2C666.7 105 733.3 104 800 111.8C866.7 119.7 933.3 136.3 1000 139.5C1066.7 142.7 1133.3 132.3 1200 132.2C1266.7 132 1333.3 142 1366.7 147L1400 152L1400 0L1366.7 0C1333.3 0 1266.7 0 1200 0C1133.3 0 1066.7 0 1000 0C933.3 0 866.7 0 800 0C733.3 0 666.7 0 600 0C533.3 0 466.7 0 400 0C333.3 0 266.7 0 200 0C133.3 0 66.7 0 33.3 0L0 0Z" fill="#00bbc6"></path><path d="M0 88L33.3 88C66.7 88 133.3 88 200 91C266.7 94 333.3 100 400 101.7C466.7 103.3 533.3 100.7 600 99.2C666.7 97.7 733.3 97.3 800 96C866.7 94.7 933.3 92.3 1000 93.2C1066.7 94 1133.3 98 1200 98C1266.7 98 1333.3 94 1366.7 92L1400 90L1400 0L1366.7 0C1333.3 0 1266.7 0 1200 0C1133.3 0 1066.7 0 1000 0C933.3 0 866.7 0 800 0C733.3 0 666.7 0 600 0C533.3 0 466.7 0 400 0C333.3 0 266.7 0 200 0C133.3 0 66.7 0 33.3 0L0 0Z" fill="#00d2ab"></path><path d="M0 64L33.3 60.2C66.7 56.3 133.3 48.7 200 45.7C266.7 42.7 333.3 44.3 400 48.2C466.7 52 533.3 58 600 58C666.7 58 733.3 52 800 50.8C866.7 49.7 933.3 53.3 1000 54.5C1066.7 55.7 1133.3 54.3 1200 50.8C1266.7 47.3 1333.3 41.7 1366.7 38.8L1400 36L1400 0L1366.7 0C1333.3 0 1266.7 0 1200 0C1133.3 0 1066.7 0 1000 0C933.3 0 866.7 0 800 0C733.3 0 666.7 0 600 0C533.3 0 466.7 0 400 0C333.3 0 266.7 0 200 0C133.3 0 66.7 0 33.3 0L0 0Z" fill="#00e152"></path></svg>